<svg version="1.1" id="Content"  width="32" height="32"  xmlns="http://www.w3.org/2000/svg" xmlns:xlink="http://www.w3.org/1999/xlink" x="0px" y="0px"
	 viewBox="0 0 345.8 53.4" style="enable-background:new 0 0 345.8 53.4;" xml:space="preserve">
<style type="text/css">
	.st0{fill:#FFFFFF;}
</style>
<path class="st0" d="M79.8,0.9H67.2L49.7,52.8h10.2L63.5,41h19.6l3.7,11.8h10.5L79.8,0.9z M66.1,33.1l0.7-2.2
	c3.9-12.6,6.2-20.1,6.6-22.7l0.3,1.5c0.3,1,0.9,3.3,2,7.1c1.1,3.8,2.5,8.4,4.3,14l0.7,2.3H66.1z"/>
<path class="st0" d="M136.8,32.3c3-1.2,5.4-3.1,7.2-5.7c1.7-2.5,2.6-5.7,2.7-9.3c0-5-1.7-8.9-5-11.9c-3.4-3-8-4.5-13.9-4.5h-16v51.8
	h9.7V33.8h5.3l11.8,18.9h11.6L136.8,32.3z M127.9,25.8h-6.5V8.9h6.3c2.9,0,5.2,0.7,6.7,2.2c1.6,1.4,2.3,3.5,2.3,6.2
	c0,2.7-0.7,4.8-2.2,6.3C133.1,25.1,130.9,25.8,127.9,25.8z"/>
<rect x="164.7" y="0.9" class="st0" width="9.7" height="51.8"/>
<path class="st0" d="M265,0c-7.4,0-13.4,2.4-17.8,7.3c-4.4,4.9-6.7,11.3-6.7,19.4c0,8,2.2,14.4,6.7,19.3c4.5,4.9,10.4,7.3,17.8,7.3
	c7.4,0,13.4-2.4,17.8-7.3c4.4-4.9,6.7-11.3,6.7-19.3c0-8.1-2.2-14.6-6.6-19.4C278.5,2.4,272.6,0,265,0z M275.4,39.7
	c-2.5,3.2-5.9,4.7-10.3,4.7c-4.3,0-7.7-1.6-10.3-4.8c-2.6-3.2-3.8-7.5-3.8-12.9c0-5.5,1.3-9.8,3.8-13c2.5-3.2,5.9-4.8,10.3-4.8
	c4.4,0,7.9,1.6,10.4,4.8c2.5,3.2,3.8,7.5,3.8,13C279.2,32.2,277.9,36.5,275.4,39.7z"/>
<g>
	<polygon class="st0" points="229.3,44.8 203.4,44.8 228,8.5 220.4,0.9 192.2,0.9 192.2,8.8 216.6,8.8 192.3,44.6 200.5,52.8 
		229.3,52.8 	"/>
</g>
<g>
	<path class="st0" d="M336.1,0.9v21.6c0,7.9,0.2,14.1,0.6,18.3l-0.8-1.9c-0.6-1.3-1.7-3.4-3.3-6.5c-1.6-3.1-3.4-6.3-5.5-9.9
		L314.7,1.1l-11.1,11.1v40.5h9.7V31.2c0-7.5-0.3-13.7-0.8-18.5l0.9,2.2c0.6,1.4,1.7,3.6,3.3,6.7c1.6,3.1,3.4,6.3,5.4,9.7l12.6,21.5
		h0.3L345.8,42v-41H336.1z"/>
</g>
<g>
	<path class="st0" d="M27.5,44.5c-5.1,0-9.2-1.6-12.3-4.8c-3.2-3.2-4.7-7.5-4.7-12.8c0-5.4,1.6-9.7,4.7-12.9s7.1-4.8,11.8-4.8
		c2.1,0,4,0.2,5.9,0.7L39.7,3c-3.2-1.8-7.5-2.8-13.1-2.8c-7.8,0-14.2,2.5-19.1,7.4C2.5,12.6,0,19,0,26.8c0,8,2.5,14.4,7.5,19.3
		c5,4.8,11.3,7.3,19,7.3c5.6,0,10-1,13.1-2.9L33,43.8C31.3,44.2,29.4,44.5,27.5,44.5z"/>
</g>
</svg>
