<svg width="32" height="32" viewBox="0 0 32 32" fill="none" xmlns="http://www.w3.org/2000/svg">
<g clip-path="url(#clip0_72_335)">
<rect opacity="0.01" width="32" height="32" fill="#D8D8D8"/>
<path fill-rule="evenodd" clip-rule="evenodd" d="M8.3274 4.16016C8.1266 4.16016 7.93337 4.23574 7.78576 4.37127V4.37127L1.08948 11.7344C0.901415 11.9072 0.800855 12.1463 0.800049 12.39V12.39V12.3969C0.800532 12.5247 0.828573 12.6536 0.885783 12.7746V12.7746L3.89002 22.3116C4.00331 22.5511 4.21716 22.7283 4.47356 22.7955V22.7955L15.6222 25.7195C15.973 25.8115 16.2194 26.1258 16.2251 26.4879V26.4879L16.2916 30.4199C16.2952 30.675 16.5037 30.8495 16.7267 30.8524V30.8524H16.7377C16.8273 30.8513 16.9187 30.8225 16.9997 30.7598V30.7598L27.3194 22.7955C27.4675 22.6814 27.5797 22.5279 27.6445 22.353V22.353L31.3852 12.7901C31.5212 12.4217 31.4272 12.0082 31.1458 11.7344V11.7344L24.0112 4.38722C23.8618 4.2417 23.6614 4.16016 23.4525 4.16016V4.16016H8.3274Z" fill="url(#paint0_linear_72_335)"/>
<path fill-rule="evenodd" clip-rule="evenodd" d="M17.1486 15.835C17.4366 16.3489 17.723 16.8638 18.0188 17.3732C18.0516 17.4298 18.1424 17.4866 18.2059 17.4863C19.2043 17.4796 20.2043 17.4958 21.2002 17.4386C21.907 17.398 22.4973 17.037 22.9729 16.5159C23.5899 15.8395 23.8623 15.0369 23.734 14.1279C23.5812 13.0444 22.9748 12.2815 21.9944 11.811C21.5918 11.6177 21.1623 11.5528 20.7187 11.557C20.2742 11.5612 19.8296 11.5562 19.3851 11.5584C19.0721 11.56 19.1005 11.5146 19.0989 11.8529C19.0976 12.1657 19.0936 12.4785 19.1012 12.7911C19.1045 12.9329 19.0525 12.9661 18.9165 12.9566C17.8846 12.8839 17.0461 12.1534 16.7733 11.1663C16.7228 10.9841 16.7122 10.7871 16.7082 10.5963C16.6987 10.1685 16.7046 9.74045 16.7054 9.31226C16.7054 9.26408 16.7122 9.21589 16.7169 9.15337H16.8869C18.2038 9.15337 19.5216 9.12597 20.8376 9.15965C22.793 9.20977 24.3101 10.0752 25.3639 11.7289C26.0153 12.7515 26.2559 13.8821 26.1263 15.075C25.9565 16.6424 25.2084 17.8971 23.9443 18.8408C23.5082 19.1665 23.027 19.4094 22.5146 19.591C22.4651 19.6086 22.4138 19.6216 22.3618 19.635C22.3397 19.6406 22.3176 19.6464 22.2954 19.6526C21.6861 19.8456 20.9375 19.8666 20.8703 19.8667C20.812 19.8669 20.7536 19.8671 20.6953 19.8672C19.3927 19.8701 18.0902 19.8708 16.7878 19.8648C16.724 19.8645 16.6337 19.8068 16.601 19.7497C16.2212 19.0877 15.8497 18.4207 15.4766 17.7546C15.0293 16.9561 14.5819 16.1574 14.1353 15.3584C13.6566 14.5019 13.1787 13.6447 12.7001 12.788C12.5894 12.5903 12.4771 12.3935 12.3411 12.1529C11.3084 13.994 10.2962 15.7982 9.26173 17.6423H9.47671C10.5139 17.6423 11.5512 17.6555 12.5879 17.6372C13.1547 17.627 13.6055 18.0557 13.6928 18.4426C13.8293 19.0481 13.599 19.5547 13.0614 19.7853C12.9012 19.8542 12.7101 19.8738 12.5328 19.8759C12.0785 19.8811 11.6239 19.8561 11.1693 19.8574C10.1606 19.8604 9.15166 19.8737 8.14299 19.8798C7.72851 19.8822 7.34399 19.7884 7.0096 19.5249C6.3948 19.0405 6.22913 18.1305 6.61848 17.4522C7.07986 16.6483 7.52352 15.8345 7.97652 15.026C8.41357 14.2463 8.85401 13.4684 9.29057 12.6884C9.77516 11.823 10.2546 10.9547 10.7411 10.0905C11.0899 9.471 11.6204 9.12404 12.3353 9.125C13.0363 9.12597 13.567 9.45118 13.913 10.0671C14.6201 11.3262 17.0103 15.5881 17.1486 15.835" fill="white"/>
</g>
<defs>
<linearGradient id="paint0_linear_72_335" x1="-2.97195" y1="17.1047" x2="16.0264" y2="34.0677" gradientUnits="userSpaceOnUse">
<stop stop-color="#247CFF"/>
<stop offset="1" stop-color="#0056D6"/>
</linearGradient>
<clipPath id="clip0_72_335">
<rect width="32" height="32" fill="white"/>
</clipPath>
</defs>
</svg>
